<?xml version="1.0" encoding="UTF-8" standalone="no"?>
<svg
   xmlns:dc="http://purl.org/dc/elements/1.1/"
   xmlns:cc="http://creativecommons.org/ns#"
   xmlns:rdf="http://www.w3.org/1999/02/22-rdf-syntax-ns#"
   xmlns:svg="http://www.w3.org/2000/svg"
   xmlns="http://www.w3.org/2000/svg"
   width="155.22223mm"
   height="56.444443mm"
   viewBox="0 0 550.00002 199.99999"
   id="svg2"
   version="1.1">
  <defs
     id="defs4" />
  <metadata
     id="metadata7">
    <rdf:RDF>
      <cc:Work
         rdf:about="">
        <dc:format>image/svg+xml</dc:format>
        <dc:type
           rdf:resource="http://purl.org/dc/dcmitype/StillImage" />
        <dc:title></dc:title>
      </cc:Work>
    </rdf:RDF>
  </metadata>
  <g
     id="layer1"
     transform="translate(2014.0072,-416.27936)">
    <path
       id="path4149"
       style="font-style:normal;font-variant:normal;font-weight:normal;font-stretch:normal;font-size:medium;line-height:125%;font-family:LeckerliOne;-inkscape-font-specification:LeckerliOne;letter-spacing:0px;word-spacing:0px;fill:#000000;fill-opacity:1;stroke:none;stroke-width:1px;stroke-linecap:butt;stroke-linejoin:miter;stroke-opacity:1"
       d="m -1899.4687,584.88563 c 24.8558,0 41.7946,-22.28553 41.7946,-37.01976 0,-4.23609 -0.9206,-6.99876 -2.7617,-6.99876 -5.3395,0 -17.3071,24.67984 -29.827,24.67984 -11.7835,0 -18.7799,-4.42027 -27.4335,-8.84054 0.7365,-3.68356 1.2889,-7.73547 1.2889,-11.60321 0,-12.70827 0.5523,-25.41655 2.0252,-36.6514 44.9246,-1.10506 54.6828,-25.23237 54.6828,-38.86153 0,-19.33869 -13.9929,-24.49567 -29.0905,-24.49567 -20.9893,0 -36.8234,18.78615 -46.0292,45.8603 -6.0759,-1.47342 -11.4153,-5.34116 -16.2023,-5.34116 -1.6571,0 -2.5777,2.94685 -2.5777,4.9728 0,4.05192 6.6283,9.94561 14.7294,13.99753 -3.13,13.62916 -4.9711,28.54757 -4.9711,43.83433 -3.3141,-0.36835 -6.8124,-0.55253 -10.6789,-0.55253 -14.177,0 -24.4875,6.26205 -24.4875,18.97032 0,12.15574 6.9965,20.62793 22.094,20.62793 12.3359,0 22.0941,-4.97281 28.9064,-12.33992 8.6535,5.15698 18.0435,9.76143 28.5381,9.76143 z m 10.3106,-121.74159 c 6.0758,0 9.0217,3.13102 9.0217,9.20889 0,8.28801 -13.6246,18.78615 -31.484,20.25957 4.2347,-17.68108 11.2312,-29.46846 22.4623,-29.46846 z m -65.7298,109.9542 c -2.9459,0 -6.26,-1.47342 -6.26,-5.15698 0,-3.68356 3.13,-5.52534 6.6282,-5.52534 2.9459,0 6.0759,0.92089 9.39,2.57849 -1.2888,4.9728 -3.6823,8.10383 -9.7582,8.10383 z" />
    <path
       style="font-style:normal;font-variant:normal;font-weight:normal;font-stretch:normal;font-size:medium;line-height:125%;font-family:LeckerliOne;-inkscape-font-specification:LeckerliOne;letter-spacing:0px;word-spacing:0px;fill:#000000;fill-opacity:1;stroke:none;stroke-width:1px;stroke-linecap:butt;stroke-linejoin:miter;stroke-opacity:1"
       d="m -1830.351,495.92811 c -31.1158,0 -50.4482,25.78425 -50.4482,53.59511 0,18.60197 11.9671,36.28374 39.9528,36.28374 14.5453,0 26.6976,-7.18327 35.3511,-17.12887 0,0 5.8253,-6.12622 10.1258,-16.20791 2.7618,-6.44623 4.2354,-13.07622 4.2354,-19.15409 0,-11.22067 -5.6935,-19.76808 -17.2458,-20.06186 -0.2642,-0.0182 -0.5113,-0.008 -0.7592,0.004 -2.0398,0.0746 -4.2535,0.76005 -6.3143,1.95532 -5.3033,3.08593 -8.2467,8.68649 -6.5743,12.50925 1.6722,3.82278 7.3268,4.42042 12.6301,1.33487 1.1325,-0.66112 2.1924,-1.4614 3.1307,-2.36378 2.1074,0.77364 2.2442,5.12151 2.2442,7.54329 0,3.68356 -0.9205,8.47168 -3.1299,13.07613 -4.5185,7.82875 -7.6201,11.18137 -13.0726,15.10289 -3.8665,2.39431 -8.4691,3.68389 -13.8085,3.6839 -13.2564,0 -19.7005,-8.65645 -19.7005,-19.52295 0,-21.54882 15.2815,-36.83586 36.455,-36.83586 10.6787,0 14.3612,-1.28936 14.3612,-2.94697 0,-5.34116 -13.8083,-10.8661 -27.433,-10.8661 z"
       id="path4151" />
    <path
       id="path4153"
       style="font-style:normal;font-variant:normal;font-weight:normal;font-stretch:normal;font-size:medium;line-height:125%;font-family:LeckerliOne;-inkscape-font-specification:LeckerliOne;letter-spacing:0px;word-spacing:0px;fill:#000000;fill-opacity:1;stroke:none;stroke-width:1px;stroke-linecap:butt;stroke-linejoin:miter;stroke-opacity:1"
       d="m -1759.761,516.00309 c 4.603,0 5.8918,5.34116 10.6789,5.34116 4.9711,0 9.0216,-5.52533 9.0216,-14.18169 0,-6.63041 -3.8664,-11.23486 -12.704,-11.23486 -25.4081,0 -50.4481,25.60073 -50.4481,60.77871 0,20.07539 15.8341,28.73175 30.7476,28.73175 32.5887,0 47.5022,-26.15326 47.5022,-37.57229 0,-4.42027 -1.473,-6.99876 -3.3142,-6.99876 -4.6029,0 -17.491,23.39059 -32.2204,23.39059 -4.9712,0 -15.65,-2.21013 -15.65,-12.33992 0,-16.57601 5.3394,-35.91469 16.3864,-35.91469 z" />
    <path
       id="path4155"
       style="font-style:normal;font-variant:normal;font-weight:normal;font-stretch:normal;font-size:medium;line-height:125%;font-family:LeckerliOne;-inkscape-font-specification:LeckerliOne;letter-spacing:0px;word-spacing:0px;fill:#000000;fill-opacity:1;stroke:none;stroke-width:1px;stroke-linecap:butt;stroke-linejoin:miter;stroke-opacity:1"
       d="m -1709.3398,543.62978 c 7.7329,19.89121 17.1228,41.25585 33.5092,41.25585 20.0688,0 38.8487,-20.99628 38.8487,-37.01976 0,-4.23609 -0.7364,-6.44623 -2.5776,-6.44623 -5.8918,0 -14.5452,22.28553 -30.0111,22.28553 -10.8629,0 -14.7293,-11.97157 -16.7546,-19.70704 12.8882,0 32.7728,-9.57725 32.7728,-26.70579 0,-13.07663 -8.6535,-21.18046 -24.3034,-21.18046 -15.4659,0 -24.3035,9.57725 -29.2746,19.70704 l 1.8412,-15.47095 c 2.8113,-20.17425 -5.9605,-49.65645 -16.4257,-20.96769 -10.0685,29.47641 -15.6107,67.43486 -15.6107,89.85023 0,11.23485 2.5776,17.86525 8.6535,17.86525 6.0758,0 10.6788,-2.57849 15.2817,-6.26205 2.7617,-2.21013 2.7617,-7.36711 2.7617,-11.97156 0,-7.36712 1.1048,-17.4969 1.2889,-25.23237 z m 22.8305,-27.81086 c 5.5235,0 7.1805,2.76266 7.1805,6.6304 0,8.84054 -11.9676,15.47095 -28.354,16.57601 5.1553,-11.97156 13.8088,-23.20641 21.1735,-23.20641 z" />
    <path
       id="path4157"
       style="font-style:normal;font-variant:normal;font-weight:normal;font-stretch:normal;font-size:medium;line-height:125%;font-family:LeckerliOne;-inkscape-font-specification:LeckerliOne;letter-spacing:0px;word-spacing:0px;fill:#000000;fill-opacity:1;stroke:none;stroke-width:1px;stroke-linecap:butt;stroke-linejoin:miter;stroke-opacity:1"
       d="m -1610.0884,564.2577 c -6.8123,0 -17.6752,-2.21013 -17.6752,-12.33992 l 0,-4.60445 c 19.5164,-9.02471 43.0834,-11.97156 43.0834,-33.70455 0,-10.31396 -7.5488,-17.68108 -21.3576,-17.68108 -25.5922,0 -48.791,25.60073 -48.791,60.77871 0,20.07539 16.0182,28.73175 32.5887,28.73175 42.1628,0 55.4192,-27.25833 55.4192,-37.57229 0,-4.23609 -0.7364,-6.44623 -2.5776,-6.44623 -4.2347,0 -16.3864,22.83806 -40.6899,22.83806 z m -3.13,-51.93816 c 3.8665,0 5.7077,1.84177 5.7077,4.60444 0,7.5513 -8.6535,10.8665 -18.9641,17.68108 1.8412,-11.6032 5.8918,-22.28552 13.2564,-22.28552 z" />
    <path
       id="path4159"
       style="font-style:normal;font-variant:normal;font-weight:normal;font-stretch:normal;font-size:medium;line-height:125%;font-family:LeckerliOne;-inkscape-font-specification:LeckerliOne;letter-spacing:0px;word-spacing:0px;fill:#000000;fill-opacity:1;stroke:none;stroke-width:1px;stroke-linecap:butt;stroke-linejoin:miter;stroke-opacity:1"
       d="m -1542.2747,564.2577 c -6.8123,0 -17.6752,-2.21013 -17.6752,-12.33992 l 0,-4.60445 c 19.5164,-9.02471 43.0834,-11.97156 43.0834,-33.70455 0,-10.31396 -7.5488,-17.68108 -21.3576,-17.68108 -25.5923,0 -48.791,25.60073 -48.791,60.77871 0,20.07539 16.0182,28.73175 32.5887,28.73175 42.1628,0 55.4192,-27.25833 55.4192,-37.57229 0,-4.23609 -0.7365,-6.44623 -2.5776,-6.44623 -4.2347,0 -16.3864,22.83806 -40.6899,22.83806 z m -3.13,-51.93816 c 3.8665,0 5.7077,1.84177 5.7077,4.60444 0,7.5513 -8.6536,10.8665 -18.9641,17.68108 1.8412,-11.6032 5.8917,-22.28552 13.2564,-22.28552 z" />
  </g>
</svg>
